<svg width="52" height="23" viewBox="0 0 52 23" fill="none" xmlns="http://www.w3.org/2000/svg">
<path d="M0.312 0.599998H5.624C7.43733 0.599998 8.76 1.02667 9.592 1.88C10.424 2.712 10.84 4.00267 10.84 5.752V6.648C10.84 7.8 10.648 8.73867 10.264 9.464C9.90133 10.1893 9.336 10.712 8.568 11.032V11.096C10.3173 11.6933 11.192 13.2507 11.192 15.768V17.688C11.192 19.416 10.7333 20.7387 9.816 21.656C8.92 22.552 7.59733 23 5.848 23H0.312V0.599998ZM5.208 9.72C5.912 9.72 6.43467 9.53867 6.776 9.176C7.13867 8.81333 7.32 8.20533 7.32 7.352V6.104C7.32 5.29333 7.17067 4.70667 6.872 4.344C6.59467 3.98133 6.14667 3.8 5.528 3.8H3.832V9.72H5.208ZM5.848 19.8C6.46667 19.8 6.92533 19.64 7.224 19.32C7.52267 18.9787 7.672 18.4027 7.672 17.592V15.64C7.672 14.616 7.49067 13.912 7.128 13.528C6.78667 13.1227 6.21067 12.92 5.4 12.92H3.832V19.8H5.848ZM13.2495 0.599998H22.8495V3.8H16.7695V9.72H21.6015V12.92H16.7695V19.8H22.8495V23H13.2495V0.599998Z" fill="black"/>
<path d="M24.8745 0.599998H34.1865V3.8H28.3945V10.04H32.9385V13.24H28.3945V23H24.8745V0.599998ZM35.8745 0.599998H39.3945V23H35.8745V0.599998ZM44.7828 3.8H41.1028V0.599998H51.9828V3.8H48.3028V23H44.7828V3.8Z" fill="#FF4301"/>
</svg>
