<svg width="360" height="539" viewBox="0 0 360 539" fill="none" xmlns="http://www.w3.org/2000/svg">
<line x1="458.599" y1="0.367195" x2="0.339231" y2="423.893" stroke="white"/>
<line x1="512.897" y1="59.1182" x2="54.6376" y2="482.644" stroke="white"/>
<line x1="485.748" y1="29.7427" x2="27.4886" y2="453.269" stroke="white"/>
<line x1="540.046" y1="88.4941" x2="81.7865" y2="512.02" stroke="white"/>
<line x1="472.173" y1="15.0552" x2="13.9139" y2="438.581" stroke="white"/>
<line x1="526.472" y1="73.8062" x2="68.2123" y2="497.332" stroke="white"/>
<line x1="499.322" y1="44.4307" x2="41.0629" y2="467.957" stroke="white"/>
<line x1="553.621" y1="103.182" x2="95.3612" y2="526.708" stroke="white"/>
<line x1="461.992" y1="4.03907" x2="3.73279" y2="427.565" stroke="white"/>
<line x1="516.291" y1="62.7905" x2="58.0311" y2="486.317" stroke="white"/>
<line x1="489.142" y1="33.4146" x2="30.8822" y2="456.941" stroke="white"/>
<line x1="543.44" y1="92.166" x2="85.1803" y2="515.692" stroke="white"/>
<line x1="475.567" y1="18.7271" x2="17.3075" y2="442.253" stroke="white"/>
<line x1="529.865" y1="77.478" x2="71.6058" y2="501.004" stroke="white"/>
<line x1="502.716" y1="48.1025" x2="44.4567" y2="471.629" stroke="white"/>
<line x1="557.014" y1="106.854" x2="98.7548" y2="530.38" stroke="white"/>
<line x1="465.386" y1="7.71095" x2="7.12683" y2="431.237" stroke="white"/>
<line x1="519.684" y1="66.4624" x2="61.4247" y2="489.988" stroke="white"/>
<line x1="492.535" y1="37.0864" x2="34.2758" y2="460.612" stroke="white"/>
<line x1="546.834" y1="95.8379" x2="88.5741" y2="519.364" stroke="white"/>
<line x1="478.96" y1="22.3989" x2="20.701" y2="445.925" stroke="white"/>
<line x1="533.259" y1="81.1499" x2="74.9994" y2="504.676" stroke="white"/>
<line x1="506.11" y1="51.7744" x2="47.8505" y2="475.3" stroke="white"/>
<line x1="560.408" y1="110.526" x2="102.148" y2="534.052" stroke="white"/>
<line x1="468.78" y1="11.3828" x2="10.5204" y2="434.909" stroke="white"/>
<line x1="523.078" y1="70.1343" x2="64.8185" y2="493.66" stroke="white"/>
<line x1="495.929" y1="40.7588" x2="37.6693" y2="464.285" stroke="white"/>
<line x1="550.227" y1="99.5098" x2="91.9677" y2="523.036" stroke="white"/>
<line x1="482.354" y1="26.0708" x2="24.0948" y2="449.597" stroke="white"/>
<line x1="536.652" y1="84.8223" x2="78.3929" y2="508.348" stroke="white"/>
<line x1="509.503" y1="55.4463" x2="51.244" y2="478.972" stroke="white"/>
<line x1="563.801" y1="114.198" x2="105.542" y2="537.724" stroke="white"/>
</svg>
