<svg width="930" height="227" viewBox="0 0 930 227" fill="none" xmlns="http://www.w3.org/2000/svg">
<line x1="601.187" y1="739.315" x2="-774.544" y2="1.8986" stroke="white" stroke-opacity="0.5"/>
<line x1="766.537" y1="430.837" x2="-609.194" y2="-306.58" stroke="white" stroke-opacity="0.5"/>
<line x1="624.808" y1="695.247" x2="-750.923" y2="-42.1698" stroke="white" stroke-opacity="0.5"/>
<line x1="790.159" y1="386.768" x2="-585.572" y2="-350.649" stroke="white" stroke-opacity="0.5"/>
<line x1="648.43" y1="651.179" x2="-727.301" y2="-86.2381" stroke="white" stroke-opacity="0.5"/>
<line x1="813.78" y1="342.7" x2="-561.951" y2="-394.717" stroke="white" stroke-opacity="0.5"/>
<line x1="672.051" y1="607.11" x2="-703.68" y2="-130.306" stroke="white" stroke-opacity="0.5"/>
<line x1="837.402" y1="298.631" x2="-538.329" y2="-438.785" stroke="white" stroke-opacity="0.5"/>
<line x1="695.673" y1="563.042" x2="-680.058" y2="-174.375" stroke="white" stroke-opacity="0.5"/>
<line x1="861.023" y1="254.563" x2="-514.708" y2="-482.854" stroke="white" stroke-opacity="0.5"/>
<line x1="719.294" y1="518.973" x2="-656.437" y2="-218.443" stroke="white" stroke-opacity="0.5"/>
<line x1="884.645" y1="210.495" x2="-491.086" y2="-526.922" stroke="white" stroke-opacity="0.5"/>
<line x1="742.916" y1="474.905" x2="-632.815" y2="-262.512" stroke="white" stroke-opacity="0.5"/>
<line x1="908.266" y1="166.426" x2="-467.465" y2="-570.991" stroke="white" stroke-opacity="0.5"/>
<line x1="603.549" y1="734.909" x2="-772.182" y2="-2.50814" stroke="white" stroke-opacity="0.5"/>
<line x1="768.899" y1="426.43" x2="-606.832" y2="-310.987" stroke="white" stroke-opacity="0.5"/>
<line x1="627.171" y1="690.84" x2="-748.56" y2="-46.5765" stroke="white" stroke-opacity="0.5"/>
<line x1="792.521" y1="382.361" x2="-583.21" y2="-355.056" stroke="white" stroke-opacity="0.5"/>
<line x1="650.792" y1="646.772" x2="-724.939" y2="-90.6451" stroke="white" stroke-opacity="0.5"/>
<line x1="816.142" y1="338.293" x2="-559.589" y2="-399.124" stroke="white" stroke-opacity="0.5"/>
<line x1="674.413" y1="602.704" x2="-701.317" y2="-134.713" stroke="white" stroke-opacity="0.5"/>
<line x1="839.764" y1="294.225" x2="-535.967" y2="-443.192" stroke="white" stroke-opacity="0.5"/>
<line x1="698.035" y1="558.635" x2="-677.696" y2="-178.782" stroke="white" stroke-opacity="0.5"/>
<line x1="863.385" y1="250.156" x2="-512.346" y2="-487.261" stroke="white" stroke-opacity="0.5"/>
<line x1="721.656" y1="514.567" x2="-654.075" y2="-222.85" stroke="white" stroke-opacity="0.5"/>
<line x1="887.007" y1="206.088" x2="-488.724" y2="-531.329" stroke="white" stroke-opacity="0.5"/>
<line x1="745.278" y1="470.498" x2="-630.453" y2="-266.919" stroke="white" stroke-opacity="0.5"/>
<line x1="910.628" y1="162.019" x2="-465.103" y2="-575.398" stroke="white" stroke-opacity="0.5"/>
<line x1="605.911" y1="730.502" x2="-769.82" y2="-6.91512" stroke="white" stroke-opacity="0.5"/>
<line x1="771.261" y1="422.023" x2="-604.47" y2="-315.394" stroke="white" stroke-opacity="0.5"/>
<line x1="629.533" y1="686.433" x2="-746.198" y2="-50.9835" stroke="white" stroke-opacity="0.5"/>
<line x1="794.883" y1="377.955" x2="-580.848" y2="-359.462" stroke="white" stroke-opacity="0.5"/>
<line x1="653.154" y1="642.365" x2="-722.577" y2="-95.0518" stroke="white" stroke-opacity="0.5"/>
<line x1="818.505" y1="333.886" x2="-557.226" y2="-403.531" stroke="white" stroke-opacity="0.5"/>
<line x1="676.776" y1="598.297" x2="-698.955" y2="-139.12" stroke="white" stroke-opacity="0.5"/>
<line x1="842.126" y1="289.818" x2="-533.605" y2="-447.599" stroke="white" stroke-opacity="0.5"/>
<line x1="700.397" y1="554.228" x2="-675.334" y2="-183.189" stroke="white" stroke-opacity="0.5"/>
<line x1="865.747" y1="245.749" x2="-509.983" y2="-491.668" stroke="white" stroke-opacity="0.5"/>
<line x1="724.018" y1="510.16" x2="-651.712" y2="-227.257" stroke="white" stroke-opacity="0.5"/>
<line x1="889.369" y1="201.681" x2="-486.362" y2="-535.736" stroke="white" stroke-opacity="0.5"/>
<line x1="747.64" y1="466.091" x2="-628.091" y2="-271.326" stroke="white" stroke-opacity="0.5"/>
<line x1="912.99" y1="157.613" x2="-462.741" y2="-579.804" stroke="white" stroke-opacity="0.5"/>
<line x1="606.581" y1="725.188" x2="-769.15" y2="-12.2288" stroke="white" stroke-opacity="0.5"/>
<line x1="771.932" y1="416.709" x2="-603.799" y2="-320.708" stroke="white" stroke-opacity="0.5"/>
<line x1="630.203" y1="681.12" x2="-745.528" y2="-56.2972" stroke="white" stroke-opacity="0.5"/>
<line x1="795.553" y1="372.641" x2="-580.178" y2="-364.776" stroke="white" stroke-opacity="0.5"/>
<line x1="653.824" y1="637.051" x2="-721.907" y2="-100.366" stroke="white" stroke-opacity="0.5"/>
<line x1="819.174" y1="328.572" x2="-556.556" y2="-408.845" stroke="white" stroke-opacity="0.5"/>
<line x1="677.445" y1="592.983" x2="-698.285" y2="-144.434" stroke="white" stroke-opacity="0.5"/>
<line x1="842.796" y1="284.504" x2="-532.935" y2="-452.913" stroke="white" stroke-opacity="0.5"/>
<line x1="701.067" y1="548.914" x2="-674.664" y2="-188.503" stroke="white" stroke-opacity="0.5"/>
<line x1="866.417" y1="240.436" x2="-509.314" y2="-496.981" stroke="white" stroke-opacity="0.5"/>
<line x1="724.689" y1="504.846" x2="-651.042" y2="-232.571" stroke="white" stroke-opacity="0.5"/>
<line x1="890.039" y1="196.367" x2="-485.692" y2="-541.05" stroke="white" stroke-opacity="0.5"/>
<line x1="748.31" y1="460.778" x2="-627.421" y2="-276.639" stroke="white" stroke-opacity="0.5"/>
<line x1="913.66" y1="152.299" x2="-462.071" y2="-585.118" stroke="white" stroke-opacity="0.5"/>
<line x1="608.943" y1="720.781" x2="-766.788" y2="-16.6356" stroke="white" stroke-opacity="0.5"/>
<line x1="774.294" y1="412.302" x2="-601.437" y2="-325.115" stroke="white" stroke-opacity="0.5"/>
<line x1="632.565" y1="676.713" x2="-743.166" y2="-60.7042" stroke="white" stroke-opacity="0.5"/>
<line x1="797.915" y1="368.234" x2="-577.816" y2="-369.183" stroke="white" stroke-opacity="0.5"/>
<line x1="656.186" y1="632.644" x2="-719.545" y2="-104.773" stroke="white" stroke-opacity="0.5"/>
<line x1="821.536" y1="324.165" x2="-554.194" y2="-413.252" stroke="white" stroke-opacity="0.5"/>
<line x1="679.808" y1="588.576" x2="-695.923" y2="-148.841" stroke="white" stroke-opacity="0.5"/>
<line x1="845.158" y1="280.097" x2="-530.573" y2="-457.32" stroke="white" stroke-opacity="0.5"/>
<line x1="703.429" y1="544.508" x2="-672.302" y2="-192.909" stroke="white" stroke-opacity="0.5"/>
<line x1="868.78" y1="236.029" x2="-506.951" y2="-501.388" stroke="white" stroke-opacity="0.5"/>
<line x1="727.051" y1="500.439" x2="-648.68" y2="-236.978" stroke="white" stroke-opacity="0.5"/>
<line x1="892.401" y1="191.96" x2="-483.33" y2="-545.457" stroke="white" stroke-opacity="0.5"/>
<line x1="750.672" y1="456.371" x2="-625.059" y2="-281.046" stroke="white" stroke-opacity="0.5"/>
<line x1="916.022" y1="147.892" x2="-459.709" y2="-589.525" stroke="white" stroke-opacity="0.5"/>
<line x1="611.305" y1="716.374" x2="-764.426" y2="-21.0426" stroke="white" stroke-opacity="0.5"/>
<line x1="776.656" y1="407.895" x2="-599.075" y2="-329.522" stroke="white" stroke-opacity="0.5"/>
<line x1="634.927" y1="672.306" x2="-740.804" y2="-65.1109" stroke="white" stroke-opacity="0.5"/>
<line x1="800.277" y1="363.827" x2="-575.454" y2="-373.59" stroke="white" stroke-opacity="0.5"/>
<line x1="658.548" y1="628.238" x2="-717.182" y2="-109.179" stroke="white" stroke-opacity="0.5"/>
<line x1="823.899" y1="319.759" x2="-551.832" y2="-417.658" stroke="white" stroke-opacity="0.5"/>
<line x1="682.17" y1="584.169" x2="-693.561" y2="-153.248" stroke="white" stroke-opacity="0.5"/>
<line x1="847.52" y1="275.69" x2="-528.211" y2="-461.727" stroke="white" stroke-opacity="0.5"/>
<line x1="705.791" y1="540.101" x2="-669.94" y2="-197.316" stroke="white" stroke-opacity="0.5"/>
<line x1="871.142" y1="231.622" x2="-504.589" y2="-505.795" stroke="white" stroke-opacity="0.5"/>
<line x1="729.413" y1="496.032" x2="-646.318" y2="-241.385" stroke="white" stroke-opacity="0.5"/>
<line x1="894.763" y1="187.553" x2="-480.968" y2="-549.864" stroke="white" stroke-opacity="0.5"/>
<line x1="753.034" y1="451.964" x2="-622.697" y2="-285.453" stroke="white" stroke-opacity="0.5"/>
<line x1="918.384" y1="143.485" x2="-457.346" y2="-593.932" stroke="white" stroke-opacity="0.5"/>
<line x1="613.668" y1="711.968" x2="-762.063" y2="-25.4493" stroke="white" stroke-opacity="0.5"/>
<line x1="779.018" y1="403.489" x2="-596.713" y2="-333.928" stroke="white" stroke-opacity="0.5"/>
<line x1="637.289" y1="667.899" x2="-738.442" y2="-69.5179" stroke="white" stroke-opacity="0.5"/>
<line x1="802.639" y1="359.42" x2="-573.092" y2="-377.997" stroke="white" stroke-opacity="0.5"/>
<line x1="660.911" y1="623.831" x2="-714.82" y2="-113.586" stroke="white" stroke-opacity="0.5"/>
<line x1="826.261" y1="315.352" x2="-549.47" y2="-422.065" stroke="white" stroke-opacity="0.5"/>
<line x1="684.532" y1="579.762" x2="-691.199" y2="-157.655" stroke="white" stroke-opacity="0.5"/>
<line x1="849.882" y1="271.283" x2="-525.848" y2="-466.134" stroke="white" stroke-opacity="0.5"/>
<line x1="708.153" y1="535.694" x2="-667.577" y2="-201.723" stroke="white" stroke-opacity="0.5"/>
<line x1="873.504" y1="227.215" x2="-502.227" y2="-510.202" stroke="white" stroke-opacity="0.5"/>
<line x1="731.775" y1="491.625" x2="-643.956" y2="-245.792" stroke="white" stroke-opacity="0.5"/>
<line x1="897.125" y1="183.146" x2="-478.605" y2="-554.27" stroke="white" stroke-opacity="0.5"/>
<line x1="755.397" y1="447.557" x2="-620.334" y2="-289.86" stroke="white" stroke-opacity="0.5"/>
<line x1="920.747" y1="139.078" x2="-454.984" y2="-598.339" stroke="white" stroke-opacity="0.5"/>
<line x1="618.392" y1="703.154" x2="-757.339" y2="-34.263" stroke="white" stroke-opacity="0.5"/>
<line x1="783.742" y1="394.675" x2="-591.989" y2="-342.742" stroke="white" stroke-opacity="0.5"/>
<line x1="642.014" y1="659.085" x2="-733.717" y2="-78.3314" stroke="white" stroke-opacity="0.5"/>
<line x1="807.364" y1="350.606" x2="-568.367" y2="-386.81" stroke="white" stroke-opacity="0.5"/>
<line x1="665.635" y1="615.017" x2="-710.096" y2="-122.4" stroke="white" stroke-opacity="0.5"/>
<line x1="830.985" y1="306.538" x2="-544.746" y2="-430.879" stroke="white" stroke-opacity="0.5"/>
<line x1="689.256" y1="570.948" x2="-686.475" y2="-166.468" stroke="white" stroke-opacity="0.5"/>
<line x1="854.607" y1="262.47" x2="-521.124" y2="-474.947" stroke="white" stroke-opacity="0.5"/>
<line x1="712.878" y1="526.88" x2="-662.853" y2="-210.537" stroke="white" stroke-opacity="0.5"/>
<line x1="878.228" y1="218.401" x2="-497.503" y2="-519.016" stroke="white" stroke-opacity="0.5"/>
<line x1="736.499" y1="482.812" x2="-639.232" y2="-254.605" stroke="white" stroke-opacity="0.5"/>
<line x1="901.849" y1="174.333" x2="-473.881" y2="-563.084" stroke="white" stroke-opacity="0.5"/>
<line x1="760.121" y1="438.743" x2="-615.61" y2="-298.674" stroke="white" stroke-opacity="0.5"/>
<line x1="925.471" y1="130.264" x2="-450.26" y2="-607.152" stroke="white" stroke-opacity="0.5"/>
<line x1="620.754" y1="698.747" x2="-754.977" y2="-38.67" stroke="white" stroke-opacity="0.5"/>
<line x1="786.104" y1="390.268" x2="-589.627" y2="-347.149" stroke="white" stroke-opacity="0.5"/>
<line x1="644.375" y1="654.678" x2="-731.356" y2="-82.7384" stroke="white" stroke-opacity="0.5"/>
<line x1="809.726" y1="346.199" x2="-566.005" y2="-391.217" stroke="white" stroke-opacity="0.5"/>
<line x1="667.997" y1="610.61" x2="-707.734" y2="-126.807" stroke="white" stroke-opacity="0.5"/>
<line x1="833.347" y1="302.131" x2="-542.384" y2="-435.286" stroke="white" stroke-opacity="0.5"/>
<line x1="691.619" y1="566.542" x2="-684.112" y2="-170.875" stroke="white" stroke-opacity="0.5"/>
<line x1="856.969" y1="258.063" x2="-518.762" y2="-479.354" stroke="white" stroke-opacity="0.5"/>
<line x1="715.24" y1="522.473" x2="-660.491" y2="-214.944" stroke="white" stroke-opacity="0.5"/>
<line x1="880.59" y1="213.994" x2="-495.141" y2="-523.422" stroke="white" stroke-opacity="0.5"/>
<line x1="738.861" y1="478.405" x2="-636.869" y2="-259.012" stroke="white" stroke-opacity="0.5"/>
<line x1="904.212" y1="169.926" x2="-471.519" y2="-567.491" stroke="white" stroke-opacity="0.5"/>
<line x1="762.483" y1="434.336" x2="-613.248" y2="-303.08" stroke="white" stroke-opacity="0.5"/>
<line x1="927.833" y1="125.857" x2="-447.898" y2="-611.559" stroke="white" stroke-opacity="0.5"/>
<line x1="617.722" y1="708.468" x2="-758.009" y2="-28.9491" stroke="white" stroke-opacity="0.5"/>
<line x1="783.072" y1="399.989" x2="-592.659" y2="-337.428" stroke="white" stroke-opacity="0.5"/>
<line x1="641.343" y1="664.399" x2="-734.388" y2="-73.0177" stroke="white" stroke-opacity="0.5"/>
<line x1="806.694" y1="355.92" x2="-569.037" y2="-381.496" stroke="white" stroke-opacity="0.5"/>
<line x1="664.965" y1="620.331" x2="-710.766" y2="-117.086" stroke="white" stroke-opacity="0.5"/>
<line x1="830.315" y1="311.852" x2="-545.416" y2="-425.565" stroke="white" stroke-opacity="0.5"/>
<line x1="688.586" y1="576.262" x2="-687.145" y2="-161.154" stroke="white" stroke-opacity="0.5"/>
<line x1="853.937" y1="267.783" x2="-521.794" y2="-469.633" stroke="white" stroke-opacity="0.5"/>
<line x1="712.208" y1="532.194" x2="-663.523" y2="-205.223" stroke="white" stroke-opacity="0.5"/>
<line x1="877.558" y1="223.715" x2="-498.173" y2="-513.702" stroke="white" stroke-opacity="0.5"/>
<line x1="735.829" y1="488.125" x2="-639.901" y2="-249.291" stroke="white" stroke-opacity="0.5"/>
<line x1="901.18" y1="179.646" x2="-474.551" y2="-557.77" stroke="white" stroke-opacity="0.5"/>
<line x1="759.451" y1="444.057" x2="-616.28" y2="-293.36" stroke="white" stroke-opacity="0.5"/>
<line x1="924.801" y1="135.578" x2="-450.93" y2="-601.839" stroke="white" stroke-opacity="0.5"/>
</svg>
